<?xml version="1.0" encoding="utf-8"?>
<!-- Generator: Adobe Illustrator 27.3.1, SVG Export Plug-In . SVG Version: 6.00 Build 0)  -->
<svg version="1.1" id="Layer_1" xmlns="http://www.w3.org/2000/svg" xmlns:xlink="http://www.w3.org/1999/xlink" x="0px" y="0px"
	 width="49px" height="50px" viewBox="0 0 49 50" style="enable-background:new 0 0 49 50;" xml:space="preserve">
<style type="text/css">
	.st0{enable-background:new    ;}
	.st1{fill:#FFFFFF;}
</style>
<g class="st0">
	<path class="st1" d="M2.4,40V13h9.5c3.3,0,5.8,0.6,7.5,1.9c1.7,1.3,2.5,3.1,2.5,5.5c0,1.3-0.3,2.5-1,3.5c-0.7,1-1.6,1.7-2.8,2.2
		c1.4,0.3,2.5,1,3.3,2.1c0.8,1.1,1.2,2.3,1.2,3.9c0,2.6-0.8,4.6-2.5,5.9c-1.7,1.3-4,2-7.1,2H2.4z M8,24.3h4.1c2.8,0,4.2-1.2,4.2-3.4
		c0-1.2-0.4-2.1-1.1-2.6c-0.7-0.5-1.8-0.8-3.4-0.8H8V24.3z M8,28.2v7.3h4.8c1.3,0,2.3-0.3,3.1-0.9c0.7-0.6,1.1-1.5,1.1-2.6
		c0-2.5-1.3-3.7-3.8-3.8H8z"/>
	<path class="st1" d="M32.2,30.5V40h-5.6V13h10.5c2,0,3.8,0.4,5.4,1.1c1.5,0.7,2.7,1.8,3.6,3.2c0.8,1.4,1.2,2.9,1.2,4.7
		c0,2.6-0.9,4.7-2.7,6.3c-1.8,1.5-4.3,2.3-7.5,2.3H32.2z M32.2,26h5c1.5,0,2.6-0.3,3.4-1c0.8-0.7,1.2-1.7,1.2-3
		c0-1.3-0.4-2.4-1.2-3.2s-1.9-1.2-3.2-1.3h-5.1V26z"/>
</g>
</svg>
